<svg width="214" height="168" viewBox="0 0 214 168" fill="none" xmlns="http://www.w3.org/2000/svg">
  <rect x="38.25" y="40.3438" width="127.5" height="127.5" rx="20.7188" fill="#17191C"/>
  <path d="M124.204 71.6379C115.204 80.6086 101.998 93.7354 101.998 93.7354L114.806 106.484L127.613 119.233L149.819 97.1292C151.702 95.2549 151.702 92.216 149.819 90.3417L131.027 71.6367C129.142 69.7605 126.088 69.7605 124.204 71.6379Z" fill="#31333A"/>
  <path d="M54.1839 97.1289C63.196 106.088 76.3834 119.233 76.3834 119.233L89.1909 106.484L101.998 93.7358L79.7928 71.6323C77.9099 69.758 74.857 69.758 72.974 71.6323L54.1827 90.3373C52.2979 92.2135 52.2978 95.2539 54.1839 97.1289Z" fill="#40424B"/>
  <path d="M127.61 119.234C119.032 110.719 101.995 93.7365 101.995 93.7365L89.1875 106.485L76.3801 119.234L98.5856 141.337C100.469 143.212 103.521 143.212 105.404 141.337L127.61 119.234Z" fill="#575965"/>
  <rect x="164.953" y="23.6094" width="11.1562" height="34.2656" fill="#111215"/>
  <g filter="url(#filter0_d_938_44230)">
    <path fill-rule="evenodd" clip-rule="evenodd" d="M175.247 13.3137C173.186 9.74373 168.033 9.74373 165.972 13.3137L140.465 57.4925C138.404 61.0625 140.981 65.525 145.103 65.525H196.116C200.238 65.525 202.815 61.0625 200.754 57.4925L175.247 13.3137ZM167.951 47.9852H173.228L173.764 27.0856H167.416L167.951 47.9852ZM167.601 52.1281C167.299 52.6502 167.154 53.2205 167.168 53.8388C167.154 54.4709 167.299 55.0548 167.601 55.5907C167.917 56.1129 168.343 56.532 168.879 56.848C169.415 57.1503 169.999 57.3015 170.631 57.3015C171.235 57.3015 171.799 57.1503 172.321 56.848C172.843 56.532 173.262 56.1129 173.578 55.5907C173.894 55.0548 174.052 54.4709 174.052 53.8388C174.052 53.2205 173.894 52.6502 173.578 52.1281C173.262 51.5922 172.843 51.1731 172.321 50.8708C171.799 50.5685 171.235 50.4173 170.631 50.4173C169.999 50.4173 169.415 50.5685 168.879 50.8708C168.343 51.1731 167.917 51.5922 167.601 52.1281Z" fill="#757884"/>
  </g>
  <defs>
    <filter id="filter0_d_938_44230" x="125.062" y="-4.71875" width="90.9375" height="90.9375" filterUnits="userSpaceOnUse" color-interpolation-filters="sRGB">
      <feFlood flood-opacity="0" result="BackgroundImageFix"/>
      <feColorMatrix in="SourceAlpha" type="matrix" values="0 0 0 0 0 0 0 0 0 0 0 0 0 0 0 0 0 0 127 0" result="hardAlpha"/>
      <feOffset dy="2"/>
      <feGaussianBlur stdDeviation="6"/>
      <feComposite in2="hardAlpha" operator="out"/>
      <feColorMatrix type="matrix" values="0 0 0 0 0 0 0 0 0 0 0 0 0 0 0 0 0 0 0.1 0"/>
      <feBlend mode="normal" in2="BackgroundImageFix" result="effect1_dropShadow_938_44230"/>
      <feBlend mode="normal" in="SourceGraphic" in2="effect1_dropShadow_938_44230" result="shape"/>
    </filter>
  </defs>
</svg>
